<mxfile host="Electron" modified="2024-02-14T15:40:05.271Z" agent="Mozilla/5.0 (Windows NT 10.0; Win64; x64) AppleWebKit/537.36 (KHTML, like Gecko) draw.io/22.1.2 Chrome/114.0.5735.289 Electron/25.9.4 Safari/537.36" etag="e4LtCKqb0E3jXLj0qEji" version="22.1.2" type="device">
  <diagram name="Page-1" id="1EBwtnEKuHFD_HabgmVE">
    <mxGraphModel dx="864" dy="516" grid="1" gridSize="10" guides="1" tooltips="1" connect="1" arrows="1" fold="1" page="1" pageScale="1" pageWidth="827" pageHeight="1169" math="0" shadow="0">
      <root>
        <mxCell id="0" />
        <mxCell id="1" parent="0" />
        <mxCell id="9fp5yHcM16r0php0axL3-1" value="EXTERIEUR" style="swimlane;whiteSpace=wrap;html=1;startSize=40;" parent="1" vertex="1">
          <mxGeometry x="40" y="40" width="200" height="610" as="geometry" />
        </mxCell>
        <mxCell id="9fp5yHcM16r0php0axL3-2" value="EMPLOYE" style="rounded=1;whiteSpace=wrap;html=1;dashed=1;" parent="9fp5yHcM16r0php0axL3-1" vertex="1">
          <mxGeometry x="10" y="50" width="120" height="60" as="geometry" />
        </mxCell>
        <mxCell id="9fp5yHcM16r0php0axL3-21" value="" style="endArrow=none;html=1;rounded=0;" parent="9fp5yHcM16r0php0axL3-1" edge="1">
          <mxGeometry width="50" height="50" relative="1" as="geometry">
            <mxPoint x="160" y="172" as="sourcePoint" />
            <mxPoint x="260" y="172" as="targetPoint" />
          </mxGeometry>
        </mxCell>
        <mxCell id="9fp5yHcM16r0php0axL3-22" value="" style="endArrow=none;html=1;rounded=0;" parent="9fp5yHcM16r0php0axL3-1" edge="1">
          <mxGeometry width="50" height="50" relative="1" as="geometry">
            <mxPoint x="160" y="171" as="sourcePoint" />
            <mxPoint x="160" y="81" as="targetPoint" />
          </mxGeometry>
        </mxCell>
        <mxCell id="9fp5yHcM16r0php0axL3-23" value="" style="endArrow=classic;html=1;rounded=0;" parent="9fp5yHcM16r0php0axL3-1" edge="1">
          <mxGeometry width="50" height="50" relative="1" as="geometry">
            <mxPoint x="160" y="80" as="sourcePoint" />
            <mxPoint x="130" y="80" as="targetPoint" />
            <Array as="points" />
          </mxGeometry>
        </mxCell>
        <mxCell id="9fp5yHcM16r0php0axL3-24" value="" style="endArrow=none;html=1;rounded=0;" parent="9fp5yHcM16r0php0axL3-1" edge="1">
          <mxGeometry width="50" height="50" relative="1" as="geometry">
            <mxPoint x="120" y="192" as="sourcePoint" />
            <mxPoint x="120" y="112" as="targetPoint" />
          </mxGeometry>
        </mxCell>
        <mxCell id="9fp5yHcM16r0php0axL3-26" value="" style="endArrow=classic;html=1;rounded=0;" parent="9fp5yHcM16r0php0axL3-1" edge="1">
          <mxGeometry width="50" height="50" relative="1" as="geometry">
            <mxPoint x="119" y="193" as="sourcePoint" />
            <mxPoint x="390" y="193" as="targetPoint" />
          </mxGeometry>
        </mxCell>
        <mxCell id="9fp5yHcM16r0php0axL3-27" value="" style="endArrow=none;html=1;rounded=0;" parent="9fp5yHcM16r0php0axL3-1" edge="1">
          <mxGeometry width="50" height="50" relative="1" as="geometry">
            <mxPoint x="100" y="218" as="sourcePoint" />
            <mxPoint x="100" y="111" as="targetPoint" />
          </mxGeometry>
        </mxCell>
        <mxCell id="9fp5yHcM16r0php0axL3-41" value="" style="endArrow=classic;html=1;rounded=0;" parent="9fp5yHcM16r0php0axL3-1" edge="1">
          <mxGeometry width="50" height="50" relative="1" as="geometry">
            <mxPoint x="80" y="530" as="sourcePoint" />
            <mxPoint x="80" y="110" as="targetPoint" />
          </mxGeometry>
        </mxCell>
        <mxCell id="9fp5yHcM16r0php0axL3-90" value="" style="endArrow=none;html=1;rounded=0;" parent="9fp5yHcM16r0php0axL3-1" edge="1">
          <mxGeometry width="50" height="50" relative="1" as="geometry">
            <mxPoint x="220" y="287" as="sourcePoint" />
            <mxPoint x="243" y="287" as="targetPoint" />
          </mxGeometry>
        </mxCell>
        <mxCell id="9fp5yHcM16r0php0axL3-119" value="" style="endArrow=none;html=1;rounded=0;" parent="9fp5yHcM16r0php0axL3-1" edge="1">
          <mxGeometry width="50" height="50" relative="1" as="geometry">
            <mxPoint x="60" y="560" as="sourcePoint" />
            <mxPoint x="60" y="109" as="targetPoint" />
          </mxGeometry>
        </mxCell>
        <mxCell id="L5nzPI9DcrNfPF-EjY4g-36" value="" style="endArrow=none;html=1;rounded=0;" edge="1" parent="9fp5yHcM16r0php0axL3-1">
          <mxGeometry width="50" height="50" relative="1" as="geometry">
            <mxPoint x="240" y="460" as="sourcePoint" />
            <mxPoint x="240" y="436" as="targetPoint" />
          </mxGeometry>
        </mxCell>
        <mxCell id="L5nzPI9DcrNfPF-EjY4g-53" value="" style="endArrow=none;html=1;rounded=0;" edge="1" parent="9fp5yHcM16r0php0axL3-1">
          <mxGeometry width="50" height="50" relative="1" as="geometry">
            <mxPoint x="60" y="560" as="sourcePoint" />
            <mxPoint x="810" y="560" as="targetPoint" />
          </mxGeometry>
        </mxCell>
        <mxCell id="L5nzPI9DcrNfPF-EjY4g-67" value="" style="endArrow=classic;html=1;rounded=0;entryX=0.25;entryY=1;entryDx=0;entryDy=0;" edge="1" parent="9fp5yHcM16r0php0axL3-1" target="9fp5yHcM16r0php0axL3-2">
          <mxGeometry width="50" height="50" relative="1" as="geometry">
            <mxPoint x="40" y="570" as="sourcePoint" />
            <mxPoint x="90" y="520" as="targetPoint" />
          </mxGeometry>
        </mxCell>
        <mxCell id="L5nzPI9DcrNfPF-EjY4g-70" value="" style="endArrow=classic;html=1;rounded=0;entryX=0.075;entryY=0.967;entryDx=0;entryDy=0;entryPerimeter=0;" edge="1" parent="9fp5yHcM16r0php0axL3-1" target="9fp5yHcM16r0php0axL3-2">
          <mxGeometry width="50" height="50" relative="1" as="geometry">
            <mxPoint x="17" y="590" as="sourcePoint" />
            <mxPoint x="67" y="540" as="targetPoint" />
          </mxGeometry>
        </mxCell>
        <mxCell id="9fp5yHcM16r0php0axL3-3" value="DIRECTRICE DES RESSOURCES HUMAINES" style="swimlane;whiteSpace=wrap;html=1;startSize=40;" parent="1" vertex="1">
          <mxGeometry x="240" y="40" width="280" height="610" as="geometry" />
        </mxCell>
        <mxCell id="9fp5yHcM16r0php0axL3-4" value="Apres les phases de recrutement" style="shape=parallelogram;perimeter=parallelogramPerimeter;whiteSpace=wrap;html=1;fixedSize=1;" parent="9fp5yHcM16r0php0axL3-3" vertex="1">
          <mxGeometry x="16.5" y="50" width="140" height="40" as="geometry" />
        </mxCell>
        <mxCell id="9fp5yHcM16r0php0axL3-5" value="T1: ETABLISSEMENT DOCUMENTS GARANTIE" style="rounded=0;whiteSpace=wrap;html=1;" parent="9fp5yHcM16r0php0axL3-3" vertex="1">
          <mxGeometry x="11" y="110" width="150" height="30" as="geometry" />
        </mxCell>
        <mxCell id="9fp5yHcM16r0php0axL3-6" value="D1" style="shape=document;whiteSpace=wrap;html=1;boundedLbl=1;" parent="9fp5yHcM16r0php0axL3-3" vertex="1">
          <mxGeometry x="60" y="161" width="30" height="30" as="geometry" />
        </mxCell>
        <mxCell id="9fp5yHcM16r0php0axL3-7" value="D1" style="shape=document;whiteSpace=wrap;html=1;boundedLbl=1;" parent="9fp5yHcM16r0php0axL3-3" vertex="1">
          <mxGeometry x="80" y="197" width="30" height="30" as="geometry" />
        </mxCell>
        <mxCell id="9fp5yHcM16r0php0axL3-8" value="D2" style="shape=document;whiteSpace=wrap;html=1;boundedLbl=1;" parent="9fp5yHcM16r0php0axL3-3" vertex="1">
          <mxGeometry x="190" y="180" width="30" height="30" as="geometry" />
        </mxCell>
        <mxCell id="9fp5yHcM16r0php0axL3-9" value="Document de garantie signÃ© ?" style="rhombus;whiteSpace=wrap;html=1;" parent="9fp5yHcM16r0php0axL3-3" vertex="1">
          <mxGeometry x="41.5" y="237" width="115" height="100" as="geometry" />
        </mxCell>
        <mxCell id="9fp5yHcM16r0php0axL3-11" value="T2: EDITION DE L&#39;AUTORISATION DE SORTIE" style="rounded=0;whiteSpace=wrap;html=1;" parent="9fp5yHcM16r0php0axL3-3" vertex="1">
          <mxGeometry x="136" y="310" width="140" height="50" as="geometry" />
        </mxCell>
        <mxCell id="9fp5yHcM16r0php0axL3-12" value="D2" style="shape=document;whiteSpace=wrap;html=1;boundedLbl=1;" parent="9fp5yHcM16r0php0axL3-3" vertex="1">
          <mxGeometry x="176" y="380" width="30" height="30" as="geometry" />
        </mxCell>
        <mxCell id="9fp5yHcM16r0php0axL3-13" value="D3" style="shape=document;whiteSpace=wrap;html=1;boundedLbl=1;" parent="9fp5yHcM16r0php0axL3-3" vertex="1">
          <mxGeometry x="238" y="380" width="30" height="30" as="geometry" />
        </mxCell>
        <mxCell id="9fp5yHcM16r0php0axL3-14" value="T3: REFUS DE L&#39;AUTORISATION DE SORTIE" style="rounded=0;whiteSpace=wrap;html=1;" parent="9fp5yHcM16r0php0axL3-3" vertex="1">
          <mxGeometry x="10" y="340" width="110" height="50" as="geometry" />
        </mxCell>
        <mxCell id="9fp5yHcM16r0php0axL3-16" value="" style="endArrow=classic;html=1;rounded=0;entryX=0.333;entryY=0;entryDx=0;entryDy=0;entryPerimeter=0;exitX=0.453;exitY=1;exitDx=0;exitDy=0;exitPerimeter=0;" parent="9fp5yHcM16r0php0axL3-3" edge="1">
          <mxGeometry width="50" height="50" relative="1" as="geometry">
            <mxPoint x="79.92000000000007" y="91" as="sourcePoint" />
            <mxPoint x="79.95000000000005" y="111" as="targetPoint" />
          </mxGeometry>
        </mxCell>
        <mxCell id="9fp5yHcM16r0php0axL3-17" value="" style="endArrow=classic;html=1;rounded=0;" parent="9fp5yHcM16r0php0axL3-3" edge="1">
          <mxGeometry width="50" height="50" relative="1" as="geometry">
            <mxPoint x="80" y="141" as="sourcePoint" />
            <mxPoint x="80" y="161" as="targetPoint" />
          </mxGeometry>
        </mxCell>
        <mxCell id="9fp5yHcM16r0php0axL3-30" value="" style="endArrow=classic;html=1;rounded=0;" parent="9fp5yHcM16r0php0axL3-3" target="9fp5yHcM16r0php0axL3-9" edge="1">
          <mxGeometry width="50" height="50" relative="1" as="geometry">
            <mxPoint x="100" y="220" as="sourcePoint" />
            <mxPoint x="150" y="160" as="targetPoint" />
          </mxGeometry>
        </mxCell>
        <mxCell id="9fp5yHcM16r0php0axL3-31" value="" style="endArrow=classic;html=1;rounded=0;" parent="9fp5yHcM16r0php0axL3-3" edge="1">
          <mxGeometry width="50" height="50" relative="1" as="geometry">
            <mxPoint x="199" y="289" as="sourcePoint" />
            <mxPoint x="199" y="310" as="targetPoint" />
          </mxGeometry>
        </mxCell>
        <mxCell id="9fp5yHcM16r0php0axL3-32" value="" style="endArrow=none;html=1;rounded=0;" parent="9fp5yHcM16r0php0axL3-3" edge="1">
          <mxGeometry width="50" height="50" relative="1" as="geometry">
            <mxPoint x="156" y="288" as="sourcePoint" />
            <mxPoint x="199" y="288" as="targetPoint" />
          </mxGeometry>
        </mxCell>
        <mxCell id="9fp5yHcM16r0php0axL3-33" value="" style="endArrow=classic;html=1;rounded=0;entryX=0.333;entryY=0.333;entryDx=0;entryDy=0;entryPerimeter=0;" parent="9fp5yHcM16r0php0axL3-3" edge="1">
          <mxGeometry width="50" height="50" relative="1" as="geometry">
            <mxPoint x="256" y="360" as="sourcePoint" />
            <mxPoint x="255.99" y="379.99" as="targetPoint" />
          </mxGeometry>
        </mxCell>
        <mxCell id="9fp5yHcM16r0php0axL3-38" value="" style="endArrow=classic;html=1;rounded=0;" parent="9fp5yHcM16r0php0axL3-3" edge="1">
          <mxGeometry width="50" height="50" relative="1" as="geometry">
            <mxPoint x="91" y="390" as="sourcePoint" />
            <mxPoint x="91" y="404" as="targetPoint" />
          </mxGeometry>
        </mxCell>
        <mxCell id="9fp5yHcM16r0php0axL3-42" value="" style="endArrow=none;html=1;rounded=0;" parent="9fp5yHcM16r0php0axL3-3" edge="1">
          <mxGeometry width="50" height="50" relative="1" as="geometry">
            <mxPoint x="268" y="390" as="sourcePoint" />
            <mxPoint x="290" y="390" as="targetPoint" />
          </mxGeometry>
        </mxCell>
        <mxCell id="9fp5yHcM16r0php0axL3-28" value="" style="endArrow=classic;html=1;rounded=0;" parent="9fp5yHcM16r0php0axL3-3" edge="1">
          <mxGeometry width="50" height="50" relative="1" as="geometry">
            <mxPoint x="-100" y="219" as="sourcePoint" />
            <mxPoint x="80" y="219" as="targetPoint" />
          </mxGeometry>
        </mxCell>
        <mxCell id="9fp5yHcM16r0php0axL3-52" value="" style="endArrow=classic;html=1;rounded=0;" parent="9fp5yHcM16r0php0axL3-3" edge="1">
          <mxGeometry width="50" height="50" relative="1" as="geometry">
            <mxPoint x="210" y="201" as="sourcePoint" />
            <mxPoint x="210" y="311" as="targetPoint" />
          </mxGeometry>
        </mxCell>
        <mxCell id="9fp5yHcM16r0php0axL3-91" value="" style="endArrow=classic;html=1;rounded=0;" parent="9fp5yHcM16r0php0axL3-3" edge="1">
          <mxGeometry width="50" height="50" relative="1" as="geometry">
            <mxPoint x="20" y="287" as="sourcePoint" />
            <mxPoint x="20" y="340" as="targetPoint" />
          </mxGeometry>
        </mxCell>
        <mxCell id="9fp5yHcM16r0php0axL3-92" value="" style="endArrow=none;html=1;rounded=0;" parent="9fp5yHcM16r0php0axL3-3" edge="1">
          <mxGeometry width="50" height="50" relative="1" as="geometry">
            <mxPoint x="196" y="417" as="sourcePoint" />
            <mxPoint x="196" y="403" as="targetPoint" />
          </mxGeometry>
        </mxCell>
        <mxCell id="9fp5yHcM16r0php0axL3-93" value="" style="endArrow=none;html=1;rounded=0;" parent="9fp5yHcM16r0php0axL3-3" edge="1">
          <mxGeometry width="50" height="50" relative="1" as="geometry">
            <mxPoint x="179" y="418" as="sourcePoint" />
            <mxPoint x="215" y="418" as="targetPoint" />
          </mxGeometry>
        </mxCell>
        <mxCell id="9fp5yHcM16r0php0axL3-94" value="" style="endArrow=none;html=1;rounded=0;fontStyle=1" parent="9fp5yHcM16r0php0axL3-3" edge="1">
          <mxGeometry width="50" height="50" relative="1" as="geometry">
            <mxPoint x="144" y="451" as="sourcePoint" />
            <mxPoint x="154" y="440" as="targetPoint" />
          </mxGeometry>
        </mxCell>
        <mxCell id="9fp5yHcM16r0php0axL3-99" value="D1" style="shape=document;whiteSpace=wrap;html=1;boundedLbl=1;" parent="9fp5yHcM16r0php0axL3-3" vertex="1">
          <mxGeometry x="139.5" y="387" width="30" height="30" as="geometry" />
        </mxCell>
        <mxCell id="9fp5yHcM16r0php0axL3-101" value="" style="endArrow=none;html=1;rounded=0;" parent="9fp5yHcM16r0php0axL3-3" edge="1">
          <mxGeometry width="50" height="50" relative="1" as="geometry">
            <mxPoint x="159" y="440" as="sourcePoint" />
            <mxPoint x="159" y="410" as="targetPoint" />
          </mxGeometry>
        </mxCell>
        <mxCell id="9fp5yHcM16r0php0axL3-102" value="" style="endArrow=none;html=1;rounded=0;" parent="9fp5yHcM16r0php0axL3-3" edge="1">
          <mxGeometry width="50" height="50" relative="1" as="geometry">
            <mxPoint x="139" y="440" as="sourcePoint" />
            <mxPoint x="179" y="440" as="targetPoint" />
          </mxGeometry>
        </mxCell>
        <mxCell id="9fp5yHcM16r0php0axL3-125" value="&lt;font style=&quot;font-size: 12px;&quot;&gt;Interdition &lt;br&gt;de sortie&lt;/font&gt;" style="shape=parallelogram;perimeter=parallelogramPerimeter;whiteSpace=wrap;html=1;fixedSize=1;size=10;" parent="9fp5yHcM16r0php0axL3-3" vertex="1">
          <mxGeometry x="5" y="405" width="70" height="30" as="geometry" />
        </mxCell>
        <mxCell id="L5nzPI9DcrNfPF-EjY4g-37" value="" style="endArrow=none;html=1;rounded=0;" edge="1" parent="9fp5yHcM16r0php0axL3-3">
          <mxGeometry width="50" height="50" relative="1" as="geometry">
            <mxPoint x="40" y="460" as="sourcePoint" />
            <mxPoint x="300" y="460" as="targetPoint" />
          </mxGeometry>
        </mxCell>
        <mxCell id="9fp5yHcM16r0php0axL3-35" value="" style="endArrow=classic;html=1;rounded=0;entryX=0.333;entryY=0.333;entryDx=0;entryDy=0;entryPerimeter=0;" parent="1" edge="1">
          <mxGeometry width="50" height="50" relative="1" as="geometry">
            <mxPoint x="429" y="401" as="sourcePoint" />
            <mxPoint x="428.99" y="420.99" as="targetPoint" />
          </mxGeometry>
        </mxCell>
        <mxCell id="9fp5yHcM16r0php0axL3-44" value="&lt;font style=&quot;font-size: 12px;&quot;&gt;RESPONSABLE INFRASTRUCTURE&lt;/font&gt;" style="swimlane;whiteSpace=wrap;html=1;startSize=40;" parent="1" vertex="1">
          <mxGeometry x="520" y="40" width="200" height="610" as="geometry" />
        </mxCell>
        <mxCell id="9fp5yHcM16r0php0axL3-45" value="" style="endArrow=none;html=1;rounded=0;" parent="9fp5yHcM16r0php0axL3-44" edge="1">
          <mxGeometry width="50" height="50" relative="1" as="geometry">
            <mxPoint x="10" y="390" as="sourcePoint" />
            <mxPoint x="10" y="60" as="targetPoint" />
          </mxGeometry>
        </mxCell>
        <mxCell id="9fp5yHcM16r0php0axL3-46" value="D3" style="shape=document;whiteSpace=wrap;html=1;boundedLbl=1;" parent="9fp5yHcM16r0php0axL3-44" vertex="1">
          <mxGeometry x="30" y="50" width="30" height="30" as="geometry" />
        </mxCell>
        <mxCell id="9fp5yHcM16r0php0axL3-53" value="" style="endArrow=classic;html=1;rounded=0;" parent="9fp5yHcM16r0php0axL3-44" edge="1">
          <mxGeometry width="50" height="50" relative="1" as="geometry">
            <mxPoint x="10" y="60" as="sourcePoint" />
            <mxPoint x="30" y="60" as="targetPoint" />
          </mxGeometry>
        </mxCell>
        <mxCell id="9fp5yHcM16r0php0axL3-54" value="T6: EDITION DE LA DEMANDE D&#39;ACTIF" style="rounded=0;whiteSpace=wrap;html=1;" parent="9fp5yHcM16r0php0axL3-44" vertex="1">
          <mxGeometry x="61" y="348" width="115" height="45" as="geometry" />
        </mxCell>
        <mxCell id="9fp5yHcM16r0php0axL3-57" value="D4" style="shape=document;whiteSpace=wrap;html=1;boundedLbl=1;" parent="9fp5yHcM16r0php0axL3-44" vertex="1">
          <mxGeometry x="115" y="412" width="30" height="30" as="geometry" />
        </mxCell>
        <mxCell id="9fp5yHcM16r0php0axL3-58" value="" style="endArrow=classic;html=1;rounded=0;" parent="9fp5yHcM16r0php0axL3-44" edge="1">
          <mxGeometry width="50" height="50" relative="1" as="geometry">
            <mxPoint x="29" y="152" as="sourcePoint" />
            <mxPoint x="29" y="172" as="targetPoint" />
          </mxGeometry>
        </mxCell>
        <mxCell id="9fp5yHcM16r0php0axL3-76" value="Actif attribuÃ©" style="shape=parallelogram;perimeter=parallelogramPerimeter;whiteSpace=wrap;html=1;fixedSize=1;" parent="9fp5yHcM16r0php0axL3-44" vertex="1">
          <mxGeometry x="-87" y="478" width="110" height="20" as="geometry" />
        </mxCell>
        <mxCell id="9fp5yHcM16r0php0axL3-77" value="T8: REMISE DE L&#39;ACTIF INFORMATIQUE" style="rounded=0;whiteSpace=wrap;html=1;" parent="9fp5yHcM16r0php0axL3-44" vertex="1">
          <mxGeometry x="61" y="448" width="99" height="50" as="geometry" />
        </mxCell>
        <mxCell id="9fp5yHcM16r0php0axL3-78" value="Actif attribuÃ©" style="shape=parallelogram;perimeter=parallelogramPerimeter;whiteSpace=wrap;html=1;fixedSize=1;" parent="9fp5yHcM16r0php0axL3-44" vertex="1">
          <mxGeometry x="54" y="519" width="102" height="22" as="geometry" />
        </mxCell>
        <mxCell id="9fp5yHcM16r0php0axL3-82" value="" style="endArrow=classic;html=1;rounded=0;entryX=0.583;entryY=-0.1;entryDx=0;entryDy=0;entryPerimeter=0;" parent="9fp5yHcM16r0php0axL3-44" edge="1">
          <mxGeometry width="50" height="50" relative="1" as="geometry">
            <mxPoint x="120" y="329" as="sourcePoint" />
            <mxPoint x="119.96000000000004" y="347" as="targetPoint" />
          </mxGeometry>
        </mxCell>
        <mxCell id="9fp5yHcM16r0php0axL3-118" value="" style="endArrow=none;html=1;rounded=0;" parent="9fp5yHcM16r0php0axL3-44" edge="1">
          <mxGeometry width="50" height="50" relative="1" as="geometry">
            <mxPoint x="-400" y="529" as="sourcePoint" />
            <mxPoint x="63" y="529" as="targetPoint" />
          </mxGeometry>
        </mxCell>
        <mxCell id="L5nzPI9DcrNfPF-EjY4g-3" value="D3" style="shape=document;whiteSpace=wrap;html=1;boundedLbl=1;" vertex="1" parent="9fp5yHcM16r0php0axL3-44">
          <mxGeometry x="15" y="172" width="30" height="30" as="geometry" />
        </mxCell>
        <mxCell id="L5nzPI9DcrNfPF-EjY4g-21" value="T4: ENREGISTREMENT DE L&#39;AUTORISATION DE SORTIE" style="rounded=0;whiteSpace=wrap;html=1;" vertex="1" parent="9fp5yHcM16r0php0axL3-44">
          <mxGeometry x="15" y="91" width="120" height="60" as="geometry" />
        </mxCell>
        <mxCell id="L5nzPI9DcrNfPF-EjY4g-22" value="&lt;font style=&quot;font-size: 12px;&quot;&gt;Interdition &lt;br&gt;de sortie&lt;/font&gt;" style="shape=parallelogram;perimeter=parallelogramPerimeter;whiteSpace=wrap;html=1;fixedSize=1;size=10;" vertex="1" parent="9fp5yHcM16r0php0axL3-44">
          <mxGeometry x="103" y="44" width="70" height="30" as="geometry" />
        </mxCell>
        <mxCell id="L5nzPI9DcrNfPF-EjY4g-11" value="D5" style="shape=document;whiteSpace=wrap;html=1;boundedLbl=1;" vertex="1" parent="9fp5yHcM16r0php0axL3-44">
          <mxGeometry x="37" y="241" width="30" height="30" as="geometry" />
        </mxCell>
        <mxCell id="L5nzPI9DcrNfPF-EjY4g-35" value="" style="endArrow=classic;startArrow=classic;html=1;rounded=0;" edge="1" parent="9fp5yHcM16r0php0axL3-44">
          <mxGeometry width="50" height="50" relative="1" as="geometry">
            <mxPoint x="100" y="247" as="sourcePoint" />
            <mxPoint x="100" y="227" as="targetPoint" />
          </mxGeometry>
        </mxCell>
        <mxCell id="L5nzPI9DcrNfPF-EjY4g-38" value="" style="endArrow=none;html=1;rounded=0;" edge="1" parent="9fp5yHcM16r0php0axL3-44">
          <mxGeometry width="50" height="50" relative="1" as="geometry">
            <mxPoint x="20" y="460" as="sourcePoint" />
            <mxPoint x="20" y="280" as="targetPoint" />
          </mxGeometry>
        </mxCell>
        <mxCell id="L5nzPI9DcrNfPF-EjY4g-40" value="" style="endArrow=none;html=1;rounded=0;" edge="1" parent="9fp5yHcM16r0php0axL3-44">
          <mxGeometry width="50" height="50" relative="1" as="geometry">
            <mxPoint x="20" y="280" as="sourcePoint" />
            <mxPoint x="190" y="280" as="targetPoint" />
          </mxGeometry>
        </mxCell>
        <mxCell id="L5nzPI9DcrNfPF-EjY4g-41" value="" style="endArrow=none;html=1;rounded=0;" edge="1" parent="9fp5yHcM16r0php0axL3-44">
          <mxGeometry width="50" height="50" relative="1" as="geometry">
            <mxPoint x="190" y="280" as="sourcePoint" />
            <mxPoint x="190" y="60" as="targetPoint" />
          </mxGeometry>
        </mxCell>
        <mxCell id="L5nzPI9DcrNfPF-EjY4g-42" value="" style="endArrow=classic;html=1;rounded=0;entryX=1;entryY=0.5;entryDx=0;entryDy=0;" edge="1" parent="9fp5yHcM16r0php0axL3-44" target="L5nzPI9DcrNfPF-EjY4g-22">
          <mxGeometry width="50" height="50" relative="1" as="geometry">
            <mxPoint x="190" y="60" as="sourcePoint" />
            <mxPoint x="240" y="10" as="targetPoint" />
          </mxGeometry>
        </mxCell>
        <mxCell id="L5nzPI9DcrNfPF-EjY4g-48" value="" style="endArrow=none;html=1;rounded=0;" edge="1" parent="9fp5yHcM16r0php0axL3-44">
          <mxGeometry width="50" height="50" relative="1" as="geometry">
            <mxPoint x="145" y="420" as="sourcePoint" />
            <mxPoint x="210" y="420" as="targetPoint" />
          </mxGeometry>
        </mxCell>
        <mxCell id="9fp5yHcM16r0php0axL3-63" value="COMPTABLE" style="swimlane;whiteSpace=wrap;html=1;startSize=40;" parent="1" vertex="1">
          <mxGeometry x="720" y="40" width="120" height="610" as="geometry" />
        </mxCell>
        <mxCell id="9fp5yHcM16r0php0axL3-66" value="D4" style="shape=document;whiteSpace=wrap;html=1;boundedLbl=1;" parent="9fp5yHcM16r0php0axL3-63" vertex="1">
          <mxGeometry x="50" y="55" width="30" height="30" as="geometry" />
        </mxCell>
        <mxCell id="9fp5yHcM16r0php0axL3-67" value="T7:&amp;nbsp; TRANSMISSION DE L&#39;ACTIF INFORMATIQUE" style="rounded=0;whiteSpace=wrap;html=1;" parent="9fp5yHcM16r0php0axL3-63" vertex="1">
          <mxGeometry x="17" y="100" width="93" height="60" as="geometry" />
        </mxCell>
        <mxCell id="9fp5yHcM16r0php0axL3-70" value="" style="endArrow=classic;html=1;rounded=0;entryX=0;entryY=0.5;entryDx=0;entryDy=0;" parent="9fp5yHcM16r0php0axL3-63" target="9fp5yHcM16r0php0axL3-66" edge="1">
          <mxGeometry width="50" height="50" relative="1" as="geometry">
            <mxPoint x="10" y="70" as="sourcePoint" />
            <mxPoint x="60" y="20" as="targetPoint" />
          </mxGeometry>
        </mxCell>
        <mxCell id="9fp5yHcM16r0php0axL3-71" value="" style="endArrow=classic;html=1;rounded=0;" parent="9fp5yHcM16r0php0axL3-63" edge="1">
          <mxGeometry width="50" height="50" relative="1" as="geometry">
            <mxPoint x="70" y="78" as="sourcePoint" />
            <mxPoint x="70" y="100" as="targetPoint" />
          </mxGeometry>
        </mxCell>
        <mxCell id="9fp5yHcM16r0php0axL3-73" value="" style="endArrow=classic;html=1;rounded=0;" parent="9fp5yHcM16r0php0axL3-63" edge="1">
          <mxGeometry width="50" height="50" relative="1" as="geometry">
            <mxPoint x="-86" y="499" as="sourcePoint" />
            <mxPoint x="-86" y="519" as="targetPoint" />
          </mxGeometry>
        </mxCell>
        <mxCell id="9fp5yHcM16r0php0axL3-74" value="Actif attribuÃ©" style="shape=parallelogram;perimeter=parallelogramPerimeter;whiteSpace=wrap;html=1;fixedSize=1;" parent="9fp5yHcM16r0php0axL3-63" vertex="1">
          <mxGeometry x="16" y="180" width="93" height="30" as="geometry" />
        </mxCell>
        <mxCell id="9fp5yHcM16r0php0axL3-115" value="Quelque temps apres" style="shape=parallelogram;perimeter=parallelogramPerimeter;whiteSpace=wrap;html=1;fixedSize=1;" parent="9fp5yHcM16r0php0axL3-63" vertex="1">
          <mxGeometry x="-132" y="288" width="110" height="40" as="geometry" />
        </mxCell>
        <mxCell id="L5nzPI9DcrNfPF-EjY4g-13" value="" style="endArrow=classic;startArrow=classic;html=1;rounded=0;" edge="1" parent="9fp5yHcM16r0php0axL3-63">
          <mxGeometry width="50" height="50" relative="1" as="geometry">
            <mxPoint x="-140" y="240" as="sourcePoint" />
            <mxPoint x="-140" y="150" as="targetPoint" />
          </mxGeometry>
        </mxCell>
        <mxCell id="L5nzPI9DcrNfPF-EjY4g-24" value="T5: ENREGISTREMENT DU REFUS DE L&#39;AUTORISATION&amp;nbsp; SORTIE" style="rounded=0;whiteSpace=wrap;html=1;" vertex="1" parent="9fp5yHcM16r0php0axL3-63">
          <mxGeometry x="-131" y="160" width="111" height="70" as="geometry" />
        </mxCell>
        <mxCell id="L5nzPI9DcrNfPF-EjY4g-44" value="" style="endArrow=none;html=1;rounded=0;" edge="1" parent="9fp5yHcM16r0php0axL3-63">
          <mxGeometry width="50" height="50" relative="1" as="geometry">
            <mxPoint x="10" y="420" as="sourcePoint" />
            <mxPoint x="10" y="70" as="targetPoint" />
          </mxGeometry>
        </mxCell>
        <mxCell id="L5nzPI9DcrNfPF-EjY4g-50" value="" style="endArrow=none;html=1;rounded=0;" edge="1" parent="9fp5yHcM16r0php0axL3-63">
          <mxGeometry width="50" height="50" relative="1" as="geometry">
            <mxPoint x="60" y="480" as="sourcePoint" />
            <mxPoint x="60" y="210" as="targetPoint" />
          </mxGeometry>
        </mxCell>
        <mxCell id="L5nzPI9DcrNfPF-EjY4g-51" value="" style="endArrow=classic;html=1;rounded=0;entryX=0.99;entryY=0.64;entryDx=0;entryDy=0;entryPerimeter=0;" edge="1" parent="9fp5yHcM16r0php0axL3-63" target="9fp5yHcM16r0php0axL3-77">
          <mxGeometry width="50" height="50" relative="1" as="geometry">
            <mxPoint x="60" y="480" as="sourcePoint" />
            <mxPoint x="110" y="430" as="targetPoint" />
          </mxGeometry>
        </mxCell>
        <mxCell id="L5nzPI9DcrNfPF-EjY4g-65" value="" style="endArrow=none;html=1;rounded=0;" edge="1" parent="9fp5yHcM16r0php0axL3-63">
          <mxGeometry width="50" height="50" relative="1" as="geometry">
            <mxPoint x="160" y="570" as="sourcePoint" />
            <mxPoint x="160" y="330" as="targetPoint" />
          </mxGeometry>
        </mxCell>
        <mxCell id="L5nzPI9DcrNfPF-EjY4g-66" value="" style="endArrow=none;html=1;rounded=0;" edge="1" parent="9fp5yHcM16r0php0axL3-63">
          <mxGeometry width="50" height="50" relative="1" as="geometry">
            <mxPoint x="-640" y="570" as="sourcePoint" />
            <mxPoint x="160" y="570" as="targetPoint" />
          </mxGeometry>
        </mxCell>
        <mxCell id="9fp5yHcM16r0php0axL3-65" value="DIRECTEUR DES SYSTEME D&#39;INFORMATION" style="swimlane;whiteSpace=wrap;html=1;startSize=40;" parent="1" vertex="1">
          <mxGeometry x="840" y="40" width="200" height="610" as="geometry" />
        </mxCell>
        <mxCell id="9fp5yHcM16r0php0axL3-83" value="D6" style="shape=document;whiteSpace=wrap;html=1;boundedLbl=1;" parent="9fp5yHcM16r0php0axL3-65" vertex="1">
          <mxGeometry x="30" y="51" width="30" height="30" as="geometry" />
        </mxCell>
        <mxCell id="9fp5yHcM16r0php0axL3-84" value="Periode de&lt;br&gt;&amp;nbsp;congÃ©s" style="shape=parallelogram;perimeter=parallelogramPerimeter;whiteSpace=wrap;html=1;fixedSize=1;size=12;" parent="9fp5yHcM16r0php0axL3-65" vertex="1">
          <mxGeometry x="65" y="47" width="102" height="30" as="geometry" />
        </mxCell>
        <mxCell id="9fp5yHcM16r0php0axL3-85" value="DÃ©part avec actif?" style="rhombus;whiteSpace=wrap;html=1;" parent="9fp5yHcM16r0php0axL3-65" vertex="1">
          <mxGeometry x="24" y="120" width="90" height="80" as="geometry" />
        </mxCell>
        <mxCell id="9fp5yHcM16r0php0axL3-86" value="T10: REFUS DE DEPART AVEC L&#39;ACTIF" style="rounded=0;whiteSpace=wrap;html=1;" parent="9fp5yHcM16r0php0axL3-65" vertex="1">
          <mxGeometry x="15" y="220" width="105" height="60" as="geometry" />
        </mxCell>
        <mxCell id="9fp5yHcM16r0php0axL3-87" value="DÃ©part avec l&#39;actif refusÃ©" style="shape=parallelogram;perimeter=parallelogramPerimeter;whiteSpace=wrap;html=1;fixedSize=1;size=13.5;" parent="9fp5yHcM16r0php0axL3-65" vertex="1">
          <mxGeometry x="13.5" y="300" width="123.5" height="30" as="geometry" />
        </mxCell>
        <mxCell id="9fp5yHcM16r0php0axL3-88" value="T9: AUTORISATION DE DEPART AVEC L&#39;ACTIF" style="rounded=0;whiteSpace=wrap;html=1;" parent="9fp5yHcM16r0php0axL3-65" vertex="1">
          <mxGeometry x="81" y="340" width="106" height="61" as="geometry" />
        </mxCell>
        <mxCell id="9fp5yHcM16r0php0axL3-89" value="DÃ©par avec l&#39;actif autorisÃ©" style="shape=parallelogram;perimeter=parallelogramPerimeter;whiteSpace=wrap;html=1;fixedSize=1;" parent="9fp5yHcM16r0php0axL3-65" vertex="1">
          <mxGeometry x="69" y="421" width="125" height="35" as="geometry" />
        </mxCell>
        <mxCell id="9fp5yHcM16r0php0axL3-123" value="" style="endArrow=none;html=1;rounded=0;" parent="9fp5yHcM16r0php0axL3-65" edge="1">
          <mxGeometry width="50" height="50" relative="1" as="geometry">
            <mxPoint x="10" y="560" as="sourcePoint" />
            <mxPoint x="10" y="61" as="targetPoint" />
          </mxGeometry>
        </mxCell>
        <mxCell id="L5nzPI9DcrNfPF-EjY4g-54" value="" style="endArrow=none;html=1;rounded=0;" edge="1" parent="9fp5yHcM16r0php0axL3-65">
          <mxGeometry width="50" height="50" relative="1" as="geometry">
            <mxPoint x="50" y="100" as="sourcePoint" />
            <mxPoint x="50" y="74" as="targetPoint" />
          </mxGeometry>
        </mxCell>
        <mxCell id="L5nzPI9DcrNfPF-EjY4g-57" value="" style="endArrow=none;html=1;rounded=0;" edge="1" parent="9fp5yHcM16r0php0axL3-65">
          <mxGeometry width="50" height="50" relative="1" as="geometry">
            <mxPoint x="49" y="100" as="sourcePoint" />
            <mxPoint x="89" y="100" as="targetPoint" />
          </mxGeometry>
        </mxCell>
        <mxCell id="L5nzPI9DcrNfPF-EjY4g-58" value="" style="endArrow=none;html=1;rounded=0;" edge="1" parent="9fp5yHcM16r0php0axL3-65">
          <mxGeometry width="50" height="50" relative="1" as="geometry">
            <mxPoint x="68.65693430656938" y="120.58394160583941" as="sourcePoint" />
            <mxPoint x="69" y="100" as="targetPoint" />
          </mxGeometry>
        </mxCell>
        <mxCell id="L5nzPI9DcrNfPF-EjY4g-59" value="" style="endArrow=none;html=1;rounded=0;" edge="1" parent="9fp5yHcM16r0php0axL3-65">
          <mxGeometry width="50" height="50" relative="1" as="geometry">
            <mxPoint x="20" y="160" as="sourcePoint" />
            <mxPoint x="24" y="160" as="targetPoint" />
          </mxGeometry>
        </mxCell>
        <mxCell id="L5nzPI9DcrNfPF-EjY4g-60" value="" style="endArrow=classic;html=1;rounded=0;" edge="1" parent="9fp5yHcM16r0php0axL3-65">
          <mxGeometry width="50" height="50" relative="1" as="geometry">
            <mxPoint x="20" y="160" as="sourcePoint" />
            <mxPoint x="20" y="220" as="targetPoint" />
          </mxGeometry>
        </mxCell>
        <mxCell id="L5nzPI9DcrNfPF-EjY4g-61" value="" style="endArrow=none;html=1;rounded=0;" edge="1" parent="9fp5yHcM16r0php0axL3-65">
          <mxGeometry width="50" height="50" relative="1" as="geometry">
            <mxPoint x="114" y="160" as="sourcePoint" />
            <mxPoint x="160" y="160" as="targetPoint" />
          </mxGeometry>
        </mxCell>
        <mxCell id="L5nzPI9DcrNfPF-EjY4g-63" value="" style="endArrow=classic;html=1;rounded=0;entryX=0.75;entryY=0;entryDx=0;entryDy=0;" edge="1" parent="9fp5yHcM16r0php0axL3-65" target="9fp5yHcM16r0php0axL3-88">
          <mxGeometry width="50" height="50" relative="1" as="geometry">
            <mxPoint x="160" y="160" as="sourcePoint" />
            <mxPoint x="210" y="110" as="targetPoint" />
          </mxGeometry>
        </mxCell>
        <mxCell id="L5nzPI9DcrNfPF-EjY4g-68" value="" style="endArrow=none;html=1;rounded=0;" edge="1" parent="9fp5yHcM16r0php0axL3-65">
          <mxGeometry width="50" height="50" relative="1" as="geometry">
            <mxPoint x="120" y="590" as="sourcePoint" />
            <mxPoint x="120" y="457" as="targetPoint" />
          </mxGeometry>
        </mxCell>
        <mxCell id="L5nzPI9DcrNfPF-EjY4g-69" value="" style="endArrow=none;html=1;rounded=0;" edge="1" parent="9fp5yHcM16r0php0axL3-65">
          <mxGeometry width="50" height="50" relative="1" as="geometry">
            <mxPoint x="-782" y="590" as="sourcePoint" />
            <mxPoint x="120" y="590" as="targetPoint" />
          </mxGeometry>
        </mxCell>
        <mxCell id="L5nzPI9DcrNfPF-EjY4g-71" value="OUI" style="text;html=1;strokeColor=none;fillColor=none;align=center;verticalAlign=middle;whiteSpace=wrap;rounded=0;" vertex="1" parent="9fp5yHcM16r0php0axL3-65">
          <mxGeometry x="112" y="138" width="33" height="30" as="geometry" />
        </mxCell>
        <mxCell id="L5nzPI9DcrNfPF-EjY4g-72" value="&lt;font style=&quot;font-size: 10px;&quot;&gt;NON&lt;/font&gt;" style="text;html=1;strokeColor=none;fillColor=none;align=center;verticalAlign=middle;whiteSpace=wrap;rounded=0;" vertex="1" parent="9fp5yHcM16r0php0axL3-65">
          <mxGeometry x="10.5" y="136" width="21.5" height="22" as="geometry" />
        </mxCell>
        <mxCell id="9fp5yHcM16r0php0axL3-95" value="" style="endArrow=none;html=1;rounded=0;" parent="1" edge="1">
          <mxGeometry width="50" height="50" relative="1" as="geometry">
            <mxPoint x="411" y="468" as="sourcePoint" />
            <mxPoint x="421" y="457" as="targetPoint" />
          </mxGeometry>
        </mxCell>
        <mxCell id="9fp5yHcM16r0php0axL3-96" value="" style="endArrow=none;html=1;rounded=0;" parent="1" edge="1">
          <mxGeometry width="50" height="50" relative="1" as="geometry">
            <mxPoint x="423" y="470" as="sourcePoint" />
            <mxPoint x="433" y="459" as="targetPoint" />
          </mxGeometry>
        </mxCell>
        <mxCell id="9fp5yHcM16r0php0axL3-97" value="" style="endArrow=none;html=1;rounded=0;" parent="1" edge="1">
          <mxGeometry width="50" height="50" relative="1" as="geometry">
            <mxPoint x="435" y="470" as="sourcePoint" />
            <mxPoint x="445" y="459" as="targetPoint" />
          </mxGeometry>
        </mxCell>
        <mxCell id="9fp5yHcM16r0php0axL3-98" value="" style="endArrow=none;html=1;rounded=0;" parent="1" edge="1">
          <mxGeometry width="50" height="50" relative="1" as="geometry">
            <mxPoint x="445" y="470" as="sourcePoint" />
            <mxPoint x="455" y="459" as="targetPoint" />
          </mxGeometry>
        </mxCell>
        <mxCell id="9fp5yHcM16r0php0axL3-103" value="" style="endArrow=none;html=1;rounded=0;" parent="1" edge="1">
          <mxGeometry width="50" height="50" relative="1" as="geometry">
            <mxPoint x="398" y="491" as="sourcePoint" />
            <mxPoint x="408" y="480" as="targetPoint" />
          </mxGeometry>
        </mxCell>
        <mxCell id="9fp5yHcM16r0php0axL3-104" value="" style="endArrow=none;html=1;rounded=0;" parent="1" edge="1">
          <mxGeometry width="50" height="50" relative="1" as="geometry">
            <mxPoint x="370" y="491" as="sourcePoint" />
            <mxPoint x="380" y="480" as="targetPoint" />
          </mxGeometry>
        </mxCell>
        <mxCell id="9fp5yHcM16r0php0axL3-105" value="" style="endArrow=none;html=1;rounded=0;" parent="1" edge="1">
          <mxGeometry width="50" height="50" relative="1" as="geometry">
            <mxPoint x="409" y="491" as="sourcePoint" />
            <mxPoint x="419" y="480" as="targetPoint" />
          </mxGeometry>
        </mxCell>
        <mxCell id="9fp5yHcM16r0php0axL3-107" value="" style="endArrow=classic;html=1;rounded=0;exitX=0.25;exitY=1;exitDx=0;exitDy=0;" parent="1" edge="1">
          <mxGeometry width="50" height="50" relative="1" as="geometry">
            <mxPoint x="392" y="400" as="sourcePoint" />
            <mxPoint x="391" y="426" as="targetPoint" />
          </mxGeometry>
        </mxCell>
        <mxCell id="9fp5yHcM16r0php0axL3-108" value="D1" style="shape=document;whiteSpace=wrap;html=1;boundedLbl=1;" parent="1" vertex="1">
          <mxGeometry x="319.5" y="444" width="30" height="30" as="geometry" />
        </mxCell>
        <mxCell id="9fp5yHcM16r0php0axL3-109" value="" style="endArrow=none;html=1;rounded=0;" parent="1" edge="1">
          <mxGeometry width="50" height="50" relative="1" as="geometry">
            <mxPoint x="339" y="480" as="sourcePoint" />
            <mxPoint x="339" y="466" as="targetPoint" />
          </mxGeometry>
        </mxCell>
        <mxCell id="9fp5yHcM16r0php0axL3-110" value="" style="endArrow=none;html=1;rounded=0;" parent="1" edge="1">
          <mxGeometry width="50" height="50" relative="1" as="geometry">
            <mxPoint x="325" y="480" as="sourcePoint" />
            <mxPoint x="354" y="480" as="targetPoint" />
          </mxGeometry>
        </mxCell>
        <mxCell id="9fp5yHcM16r0php0axL3-111" value="" style="endArrow=none;html=1;rounded=0;fontStyle=1" parent="1" edge="1">
          <mxGeometry width="50" height="50" relative="1" as="geometry">
            <mxPoint x="315" y="491" as="sourcePoint" />
            <mxPoint x="325" y="480" as="targetPoint" />
          </mxGeometry>
        </mxCell>
        <mxCell id="9fp5yHcM16r0php0axL3-112" value="" style="endArrow=none;html=1;rounded=0;fontStyle=1" parent="1" edge="1">
          <mxGeometry width="50" height="50" relative="1" as="geometry">
            <mxPoint x="323" y="491" as="sourcePoint" />
            <mxPoint x="333" y="480" as="targetPoint" />
          </mxGeometry>
        </mxCell>
        <mxCell id="9fp5yHcM16r0php0axL3-113" value="" style="endArrow=none;html=1;rounded=0;fontStyle=1" parent="1" edge="1">
          <mxGeometry width="50" height="50" relative="1" as="geometry">
            <mxPoint x="333" y="491" as="sourcePoint" />
            <mxPoint x="343" y="480" as="targetPoint" />
          </mxGeometry>
        </mxCell>
        <mxCell id="9fp5yHcM16r0php0axL3-114" value="" style="endArrow=none;html=1;rounded=0;fontStyle=1" parent="1" edge="1">
          <mxGeometry width="50" height="50" relative="1" as="geometry">
            <mxPoint x="343" y="492" as="sourcePoint" />
            <mxPoint x="354" y="480" as="targetPoint" />
          </mxGeometry>
        </mxCell>
        <mxCell id="9fp5yHcM16r0php0axL3-116" value="" style="endArrow=classic;html=1;rounded=0;" parent="1" edge="1">
          <mxGeometry width="50" height="50" relative="1" as="geometry">
            <mxPoint x="777" y="201" as="sourcePoint" />
            <mxPoint x="777" y="220" as="targetPoint" />
          </mxGeometry>
        </mxCell>
        <mxCell id="9fp5yHcM16r0php0axL3-124" value="" style="endArrow=classic;html=1;rounded=0;" parent="1" edge="1">
          <mxGeometry width="50" height="50" relative="1" as="geometry">
            <mxPoint x="850" y="101" as="sourcePoint" />
            <mxPoint x="870" y="101" as="targetPoint" />
          </mxGeometry>
        </mxCell>
        <mxCell id="L5nzPI9DcrNfPF-EjY4g-19" value="" style="endArrow=classic;html=1;rounded=0;" edge="1" parent="1">
          <mxGeometry width="50" height="50" relative="1" as="geometry">
            <mxPoint x="290" y="431" as="sourcePoint" />
            <mxPoint x="290" y="445" as="targetPoint" />
          </mxGeometry>
        </mxCell>
        <mxCell id="L5nzPI9DcrNfPF-EjY4g-23" value="" style="endArrow=classic;html=1;rounded=0;" edge="1" parent="1">
          <mxGeometry width="50" height="50" relative="1" as="geometry">
            <mxPoint x="571" y="113" as="sourcePoint" />
            <mxPoint x="571" y="132" as="targetPoint" />
          </mxGeometry>
        </mxCell>
        <mxCell id="L5nzPI9DcrNfPF-EjY4g-25" value="" style="endArrow=none;html=1;rounded=0;" edge="1" parent="1">
          <mxGeometry width="50" height="50" relative="1" as="geometry">
            <mxPoint x="555" y="247" as="sourcePoint" />
            <mxPoint x="555" y="233" as="targetPoint" />
          </mxGeometry>
        </mxCell>
        <mxCell id="L5nzPI9DcrNfPF-EjY4g-26" value="" style="endArrow=none;html=1;rounded=0;" edge="1" parent="1">
          <mxGeometry width="50" height="50" relative="1" as="geometry">
            <mxPoint x="544" y="248" as="sourcePoint" />
            <mxPoint x="567" y="248" as="targetPoint" />
          </mxGeometry>
        </mxCell>
        <mxCell id="L5nzPI9DcrNfPF-EjY4g-28" value="" style="endArrow=none;html=1;rounded=0;" edge="1" parent="1">
          <mxGeometry width="50" height="50" relative="1" as="geometry">
            <mxPoint x="544" y="257" as="sourcePoint" />
            <mxPoint x="552" y="248" as="targetPoint" />
          </mxGeometry>
        </mxCell>
        <mxCell id="L5nzPI9DcrNfPF-EjY4g-29" value="" style="endArrow=none;html=1;rounded=0;" edge="1" parent="1">
          <mxGeometry width="50" height="50" relative="1" as="geometry">
            <mxPoint x="553" y="257" as="sourcePoint" />
            <mxPoint x="561" y="248" as="targetPoint" />
          </mxGeometry>
        </mxCell>
        <mxCell id="L5nzPI9DcrNfPF-EjY4g-30" value="" style="endArrow=none;html=1;rounded=0;" edge="1" parent="1">
          <mxGeometry width="50" height="50" relative="1" as="geometry">
            <mxPoint x="559" y="257" as="sourcePoint" />
            <mxPoint x="567" y="248" as="targetPoint" />
          </mxGeometry>
        </mxCell>
        <mxCell id="L5nzPI9DcrNfPF-EjY4g-31" value="" style="endArrow=none;html=1;rounded=0;" edge="1" parent="1">
          <mxGeometry width="50" height="50" relative="1" as="geometry">
            <mxPoint x="537" y="257" as="sourcePoint" />
            <mxPoint x="545" y="248" as="targetPoint" />
          </mxGeometry>
        </mxCell>
        <mxCell id="L5nzPI9DcrNfPF-EjY4g-32" value="" style="endArrow=classic;html=1;rounded=0;" edge="1" parent="1">
          <mxGeometry width="50" height="50" relative="1" as="geometry">
            <mxPoint x="662" y="112" as="sourcePoint" />
            <mxPoint x="662" y="201" as="targetPoint" />
          </mxGeometry>
        </mxCell>
        <mxCell id="L5nzPI9DcrNfPF-EjY4g-34" value="D5" style="shape=document;whiteSpace=wrap;html=1;boundedLbl=1;" vertex="1" parent="1">
          <mxGeometry x="607" y="286" width="30" height="30" as="geometry" />
        </mxCell>
        <mxCell id="L5nzPI9DcrNfPF-EjY4g-46" value="" style="endArrow=classic;html=1;rounded=0;entryX=0.583;entryY=-0.1;entryDx=0;entryDy=0;entryPerimeter=0;" edge="1" parent="1">
          <mxGeometry width="50" height="50" relative="1" as="geometry">
            <mxPoint x="650" y="434" as="sourcePoint" />
            <mxPoint x="649.96" y="452" as="targetPoint" />
          </mxGeometry>
        </mxCell>
        <mxCell id="L5nzPI9DcrNfPF-EjY4g-56" value="" style="endArrow=none;html=1;rounded=0;" edge="1" parent="1">
          <mxGeometry width="50" height="50" relative="1" as="geometry">
            <mxPoint x="928" y="140" as="sourcePoint" />
            <mxPoint x="928" y="117" as="targetPoint" />
          </mxGeometry>
        </mxCell>
        <mxCell id="L5nzPI9DcrNfPF-EjY4g-62" value="" style="endArrow=classic;html=1;rounded=0;entryX=0.583;entryY=-0.1;entryDx=0;entryDy=0;entryPerimeter=0;" edge="1" parent="1">
          <mxGeometry width="50" height="50" relative="1" as="geometry">
            <mxPoint x="921" y="321" as="sourcePoint" />
            <mxPoint x="920.96" y="339" as="targetPoint" />
          </mxGeometry>
        </mxCell>
        <mxCell id="L5nzPI9DcrNfPF-EjY4g-64" value="" style="endArrow=classic;html=1;rounded=0;entryX=0.583;entryY=-0.1;entryDx=0;entryDy=0;entryPerimeter=0;" edge="1" parent="1">
          <mxGeometry width="50" height="50" relative="1" as="geometry">
            <mxPoint x="980" y="442" as="sourcePoint" />
            <mxPoint x="979.96" y="460" as="targetPoint" />
          </mxGeometry>
        </mxCell>
        <mxCell id="L5nzPI9DcrNfPF-EjY4g-73" value="OUI" style="text;html=1;strokeColor=none;fillColor=none;align=center;verticalAlign=middle;whiteSpace=wrap;rounded=0;" vertex="1" parent="1">
          <mxGeometry x="394" y="307" width="30" height="30" as="geometry" />
        </mxCell>
        <mxCell id="L5nzPI9DcrNfPF-EjY4g-74" value="NON" style="text;html=1;strokeColor=none;fillColor=none;align=center;verticalAlign=middle;whiteSpace=wrap;rounded=0;" vertex="1" parent="1">
          <mxGeometry x="255" y="305" width="32" height="30" as="geometry" />
        </mxCell>
      </root>
    </mxGraphModel>
  </diagram>
</mxfile>
